<svg id="new_order" xmlns="http://www.w3.org/2000/svg" width="35.825" height="35.825" viewBox="0 0 35.825 35.825" fill="#fff">
  <path id="Path_1" data-name="Path 1" d="M9.493,14.985h8.956a1.493,1.493,0,1,0,0-2.985H9.493a1.493,1.493,0,1,0,0,2.985Z" transform="translate(3.942 5.913)"/>
  <path id="Path_2" data-name="Path 2" d="M28.361,0H7.464A7.472,7.472,0,0,0,0,7.464V8.956a4.478,4.478,0,0,0,1.493,3.335V28.361a7.473,7.473,0,0,0,7.464,7.464H26.869a7.473,7.473,0,0,0,7.464-7.464V12.291a4.478,4.478,0,0,0,1.493-3.335V7.464A7.473,7.473,0,0,0,28.361,0ZM2.985,7.464A4.478,4.478,0,0,1,7.464,2.985h20.9A4.478,4.478,0,0,1,32.84,7.464V8.956a1.493,1.493,0,0,1-1.493,1.493H4.478A1.493,1.493,0,0,1,2.985,8.956Zm28.361,20.9a4.478,4.478,0,0,1-4.478,4.478H8.956a4.478,4.478,0,0,1-4.478-4.478V13.434H31.347Z"/>
</svg>
