<svg width="50px" height="50px" id="Outline" viewBox="0 0 512 512" xmlns="http://www.w3.org/2000/svg"><defs>
                      <style></style></defs><path class="cls-1" d="M303.74,266.07H124.39a8,8,0,1,1,0-16h159.1L240.7,210a8,8,0,1,1,10.93-11.68l57.58,53.89a8,8,0,0,1-5.47,13.84Z"></path>
                      <path class="cls-1" d="M246.17,320a8,8,0,0,1-5.47-13.84l57.58-53.88a8,8,0,0,1,10.93,11.68l-57.58,53.88A7.94,7.94,0,0,1,246.17,320Z"></path>
                      <path class="cls-1" d="M270.5,381.1a8,8,0,0,1,0-16,109.1,109.1,0,1,0,0-218.2,8,8,0,0,1,0-16,125.1,125.1,0,1,1,0,250.2Z"></path></svg>