<svg xmlns="http://www.w3.org/2000/svg" width="60.296" height="60.291" viewBox="0 0 60.296 60.291">
  <g id="Group_22992" data-name="Group 22992" transform="translate(-239.964 -259.998)">
    <path id="Path_39809" data-name="Path 39809" d="M242.913,320.289A10.76,10.76,0,0,1,241,319.2a3.521,3.521,0,0,1-1.04-2.834q.012-21.046.005-42.093,0-5.181,0-10.361A3.586,3.586,0,0,1,243.883,260q21.046,0,42.093,0a3.582,3.582,0,0,1,3.922,3.9q0,6,0,12.01a4.173,4.173,0,0,1-.011.47,1.166,1.166,0,0,1-2.329.021,4.923,4.923,0,0,1-.014-.588q0-5.916,0-11.833c0-1.245-.38-1.63-1.609-1.63H243.959c-1.245,0-1.634.382-1.634,1.606q0,26.2,0,52.395c0,1.189.4,1.579,1.6,1.579H285.96c1.192,0,1.582-.4,1.582-1.6q0-3.827,0-7.653c0-.137,0-.275,0-.412.021-.817.477-1.347,1.165-1.356a1.208,1.208,0,0,1,1.186,1.332c.013.745,0,1.491,0,2.237q0,2.943,0,5.887a3.535,3.535,0,0,1-2.8,3.828.713.713,0,0,0-.147.089Z" fill="#fb6107"/>
    <path id="Path_39810" data-name="Path 39810" d="M503.473,365.457c-.845,2.6-2.464,4.788-3.794,7.125-3.771,6.624-7.6,13.213-11.431,19.8a3.887,3.887,0,0,1-1,1.122q-3.408,2.564-6.868,5.057a2.1,2.1,0,0,1-1.172.4c-.626-.012-1.013-.591-.949-1.318.118-1.327.277-2.651.423-3.976.176-1.6.337-3.2.547-4.79a3.672,3.672,0,0,1,.414-1.326q7.207-12.537,14.45-25.053a4.919,4.919,0,0,1,6.638-2.194,4.794,4.794,0,0,1,2.619,3.359c.031.127.082.249.124.373Zm-16.932,25.2,11.89-20.6-4.486-2.589-11.891,20.592Zm13.076-22.632c.448-.8.889-1.491,1.243-2.229a2.569,2.569,0,0,0-4.456-2.528c-.456.679-.841,1.406-1.286,2.158ZM480.87,395.3l3.95-2.913-3.4-1.962Z" transform="translate(-203.213 -85.087)" fill="#fb6107"/>
    <path id="Path_39811" data-name="Path 39811" d="M346.837,303.213a10.832,10.832,0,1,1-10.824,10.825A10.866,10.866,0,0,1,346.837,303.213ZM339.819,318.7c.564-.431,1.145-.9,1.751-1.331s1.227-.825,1.879-1.259a5.185,5.185,0,0,1-.755-4.035,4.214,4.214,0,0,1,8.306.015,5.182,5.182,0,0,1-.8,4.078,8.524,8.524,0,0,1,3.432,2.846,8.435,8.435,0,0,0-12.7-11.02C337.589,311.242,337.785,316.188,339.819,318.7Zm1.926,2.07a8.325,8.325,0,0,0,10.189-.015,5.89,5.89,0,0,0-10.189.015Zm7-7.571h-.02c0-.157.009-.314,0-.47a1.861,1.861,0,0,0-1.709-1.78,1.791,1.791,0,0,0-1.981,1.45,4.537,4.537,0,0,0,.014,1.626,1.8,1.8,0,0,0,1.836,1.427,1.886,1.886,0,0,0,1.8-1.494A5.8,5.8,0,0,0,348.744,313.2Z" transform="translate(-81.911 -36.854)" fill="#fb6107"/>
    <path id="Path_39812" data-name="Path 39812" d="M340.794,478.354h-7.888a4.046,4.046,0,0,1-.587-.02,1.161,1.161,0,0,1,0-2.312A4,4,0,0,1,332.9,476H348.8c.955.005,1.523.444,1.523,1.177s-.567,1.177-1.522,1.178Q344.8,478.356,340.794,478.354Z" transform="translate(-77.861 -184.206)" fill="#fb6107"/>
    <path id="Path_39813" data-name="Path 39813" d="M340.794,523.154h-7.888a4.046,4.046,0,0,1-.587-.021,1.161,1.161,0,0,1,0-2.312,4,4,0,0,1,.587-.021H348.8c.955.005,1.523.444,1.523,1.177s-.567,1.177-1.522,1.178Q344.8,523.156,340.794,523.154Z" transform="translate(-77.861 -222.412)" fill="#fb6107"/>
    <path id="Path_39814" data-name="Path 39814" d="M340.8,565.6q3.974,0,7.947,0a3.05,3.05,0,0,1,.643.047,1.15,1.15,0,0,1-.009,2.261,3.134,3.134,0,0,1-.643.044q-7.947,0-15.894,0a2.906,2.906,0,0,1-.7-.064,1.143,1.143,0,0,1,.009-2.225,2.985,2.985,0,0,1,.7-.061Q336.824,565.6,340.8,565.6Z" transform="translate(-77.861 -260.618)" fill="#fb6107"/>
    <path id="Path_39815" data-name="Path 39815" d="M405.963,612.738c-.961,0-1.923.006-2.884,0-.858-.007-1.407-.467-1.415-1.166s.544-1.182,1.395-1.185q2.943-.011,5.886,0c.858,0,1.407.466,1.414,1.165s-.544,1.178-1.395,1.185C407.964,612.745,406.963,612.738,405.963,612.738Z" transform="translate(-137.898 -298.808)" fill="#fb6107"/>
    <path id="Path_39816" data-name="Path 39816" d="M298.246,476.064a1.169,1.169,0,0,1,.043,2.338,1.169,1.169,0,0,1-.043-2.338Z" transform="translate(-48.725 -184.262)" fill="#fb6107"/>
    <path id="Path_39817" data-name="Path 39817" d="M298.277,523.2a1.169,1.169,0,0,1-.016-2.338,1.169,1.169,0,0,1,.016,2.338Z" transform="translate(-48.727 -222.465)" fill="#fb6107"/>
    <path id="Path_39818" data-name="Path 39818" d="M299.424,566.823A1.177,1.177,0,0,1,298.275,568a1.169,1.169,0,0,1-.012-2.338A1.179,1.179,0,0,1,299.424,566.823Z" transform="translate(-48.727 -260.671)" fill="#fb6107"/>
  </g>
</svg>
