<svg xmlns="http://www.w3.org/2000/svg" width="50" height="50.045" viewBox="0 0 50 50.045">
  <g id="scan_qr" data-name="scan qr" transform="translate(-236.751 -257.002)">
    <path id="Path_3583" data-name="Path 3583" d="M289.686,305.057c.709,0,1.418-.022,2.125,0a2.8,2.8,0,0,1,2.733,2.717c.036,1.454.039,2.911,0,4.365a2.794,2.794,0,0,1-2.694,2.7q-2.21.063-4.422,0a2.765,2.765,0,0,1-2.66-2.664q-.061-2.238,0-4.48a2.751,2.751,0,0,1,2.622-2.632c.764-.036,1.531-.006,2.3-.006Zm-2.494,4.867c0,.632.009,1.264,0,1.9-.008.418.193.595.591.594q1.868,0,3.735,0a.522.522,0,0,0,.6-.6q0-1.868,0-3.735c0-.4-.182-.591-.6-.588-1.245.01-2.49.008-3.735,0-.412,0-.594.182-.587.591C287.2,308.7,287.192,309.31,287.192,309.924Z" transform="translate(-40.622 -40.504)"/>
    <path id="Path_3584" data-name="Path 3584" d="M449.615,305.055c.708,0,1.417-.02,2.125,0a2.768,2.768,0,0,1,2.736,2.7q.057,2.181,0,4.365a2.783,2.783,0,0,1-2.727,2.72q-2.153.05-4.308,0a2.816,2.816,0,0,1-2.75-2.77q-.041-2.125,0-4.251a2.8,2.8,0,0,1,2.742-2.769C448.159,305.034,448.888,305.055,449.615,305.055Zm2.431,4.885c0-.594-.013-1.188,0-1.781.013-.451-.148-.675-.629-.67q-1.839.021-3.677,0c-.45,0-.619.205-.618.628q.007,1.839,0,3.677c0,.395.164.617.577.616,1.264,0,2.528,0,3.792,0a.492.492,0,0,0,.552-.573C452.039,311.205,452.046,310.573,452.047,309.941Z" transform="translate(-175.113 -40.504)"/>
    <path id="Path_3585" data-name="Path 3585" d="M289.6,474.714c-.728,0-1.456.027-2.182-.006a2.759,2.759,0,0,1-2.654-2.662q-.061-2.21,0-4.423a2.773,2.773,0,0,1,2.689-2.7q2.181-.058,4.365,0a2.8,2.8,0,0,1,2.727,2.731c.035,1.435.032,2.872,0,4.308a2.8,2.8,0,0,1-2.7,2.746c-.745.03-1.493.005-2.24.005Zm.064-2.435c.613,0,1.226-.01,1.839,0,.412.009.6-.177.605-.581,0-1.245,0-2.49,0-3.735,0-.4-.18-.606-.588-.606q-1.868,0-3.735,0c-.394,0-.6.165-.6.587q.014,1.867,0,3.735c0,.451.213.61.639.6C288.44,472.268,289.053,472.279,289.666,472.278Z" transform="translate(-40.622 -175.265)"/>
    <path id="Path_3586" data-name="Path 3586" d="M489.014,265.267c0,.9.012,1.8,0,2.7a1.184,1.184,0,0,1-1.232,1.289,1.213,1.213,0,0,1-1.2-1.326c-.01-1.533,0-3.067,0-4.6a3.681,3.681,0,0,0-3.856-3.875c-1.553,0-3.106.012-4.658-.006a1.218,1.218,0,0,1-1.152-1.793,1.145,1.145,0,0,1,1.076-.641c1.84,0,3.684-.055,5.52.037a6.048,6.048,0,0,1,5.487,5.569c.043.88.007,1.763.007,2.645Z" transform="translate(-202.272)"/>
    <path id="Path_3587" data-name="Path 3587" d="M245.031,509.408a27.275,27.275,0,0,1-3.321-.189,5.966,5.966,0,0,1-4.931-5.764c-.046-1.686-.024-3.374-.013-5.06A1.181,1.181,0,0,1,238,497.108a1.214,1.214,0,0,1,1.2,1.328c.01,1.533,0,3.067,0,4.6a3.682,3.682,0,0,0,3.859,3.872c1.553.005,3.105,0,4.658,0a1.073,1.073,0,0,1,1.164.75,1.75,1.75,0,0,1-.176,1.219,1.381,1.381,0,0,1-.977.453c-.9.061-1.8.021-2.7.021Z" transform="translate(0 -202.361)"/>
    <path id="Path_3588" data-name="Path 3588" d="M480.82,509.318c-.843,0-1.687.005-2.53,0-.909-.007-1.424-.45-1.426-1.212s.533-1.227,1.416-1.23c1.514-.005,3.029,0,4.543,0a3.679,3.679,0,0,0,3.841-3.833c.007-1.572-.006-3.144.007-4.716a1.215,1.215,0,0,1,.931-1.227,1.185,1.185,0,0,1,1.358.614,1.611,1.611,0,0,1,.142.663c.008,1.687.037,3.375-.013,5.06a6.043,6.043,0,0,1-5.855,5.868c-.8.029-1.61,0-2.415,0Z" transform="translate(-202.367 -202.324)"/>
    <path id="Path_3589" data-name="Path 3589" d="M245.072,257.047c.882,0,1.764-.012,2.645,0a1.185,1.185,0,0,1,1.292,1.228,1.212,1.212,0,0,1-1.321,1.209c-1.533.01-3.067,0-4.6,0a3.684,3.684,0,0,0-3.879,3.909c0,1.534.012,3.067-.006,4.6a1.219,1.219,0,0,1-1.789,1.158,1.144,1.144,0,0,1-.645-1.074c0-1.84-.055-3.684.036-5.52a6.05,6.05,0,0,1,5.565-5.491c.9-.044,1.8-.007,2.7-.007Z" transform="translate(-0.002 -0.034)"/>
    <path id="Path_3590" data-name="Path 3590" d="M369.626,373.91v-2.476h-1.278c-.747,0-1.495.008-2.242,0a1.229,1.229,0,1,1,.038-2.44q3.507-.008,7.014,0a1.255,1.255,0,0,1,1.407,1.2c.021.731-.542,1.232-1.408,1.247-.322.006-.644,0-1.011,0v2.476c.372,0,.746-.01,1.12,0a1.22,1.22,0,1,1,.013,2.436q-2.386.022-4.772,0a1.2,1.2,0,0,1-1.288-1.24,1.186,1.186,0,0,1,1.266-1.2C368.845,373.9,369.207,373.91,369.626,373.91Z" transform="translate(-107.904 -94.431)"/>
    <path id="Path_3591" data-name="Path 3591" d="M431.216,499.521h2.448c0-.381-.012-.739,0-1.1a1.235,1.235,0,1,1,2.466-.024c.018.359,0,.72,0,1.112h2.447c0-.365-.006-.722,0-1.08a1.22,1.22,0,0,1,1.2-1.325,1.184,1.184,0,0,1,1.234,1.284c.016.785.018,1.571,0,2.356a1.148,1.148,0,0,1-1.223,1.233q-4.884.022-9.769,0a1.161,1.161,0,0,1-1.249-1.268q-.026-1.177,0-2.356a1.179,1.179,0,0,1,1.208-1.251,1.206,1.206,0,0,1,1.226,1.244C431.228,498.731,431.216,499.11,431.216,499.521Z" transform="translate(-161.829 -202.513)"/>
    <path id="Path_3592" data-name="Path 3592" d="M372.07,437.8v-2.447c-.386,0-.745.014-1.1,0a1.234,1.234,0,1,1,.013-2.463q1.12-.032,2.241,0a1.235,1.235,0,0,1,1.345,1.322q.035,2.355,0,4.711a1.21,1.21,0,0,1-1.331,1.321q-3.591.017-7.182,0a1.222,1.222,0,0,1-1.308-1.226,1.237,1.237,0,0,1,1.332-1.21c1.781-.01,3.562,0,5.343,0Z" transform="translate(-107.904 -148.302)"/>
    <path id="Path_3593" data-name="Path 3593" d="M372.111,307.531h-5.72a3.981,3.981,0,0,1-.573-.017,1.232,1.232,0,0,1-1.059-1.238,1.166,1.166,0,0,1,1.118-1.168q3.79-.033,7.58,0a1.111,1.111,0,0,1,1.111,1.168q.049,2.468,0,4.938a1.212,1.212,0,0,1-1.2,1.226,1.226,1.226,0,0,1-1.246-1.239c-.034-.975-.011-1.952-.013-2.929C372.11,308.046,372.111,307.821,372.111,307.531Z" transform="translate(-107.914 -40.55)"/>
    <path id="Path_3594" data-name="Path 3594" d="M449.633,451.447c0-.461-.019-.863,0-1.261a1.129,1.129,0,0,1,1.135-1.139c.861-.029,1.725-.029,2.587,0a1.15,1.15,0,0,1,1.149,1.188,1.189,1.189,0,0,1-1.119,1.229c-.415.032-.835.006-1.319.006,0,.427.011.8,0,1.182a1.2,1.2,0,0,1-1.267,1.263q-2.415.025-4.83,0a1.186,1.186,0,0,1-1.259-1.269q-.024-1.178,0-2.357a1.2,1.2,0,0,1,1.221-1.249,1.184,1.184,0,0,1,1.214,1.248c.015.378,0,.757,0,1.161Z" transform="translate(-175.307 -161.957)"/>
    <path id="Path_3595" data-name="Path 3595" d="M367.1,499.479c0,.418.014.777,0,1.135a1.234,1.234,0,1,1-2.463,0c-.022-.765-.025-1.532,0-2.3a1.206,1.206,0,0,1,1.313-1.278q2.383-.021,4.766,0a1.173,1.173,0,0,1,1.268,1.189,1.2,1.2,0,0,1-1.28,1.246C369.521,499.49,368.339,499.479,367.1,499.479Z" transform="translate(-107.821 -202.446)"/>
    <path id="Path_3596" data-name="Path 3596" d="M319.224,387.349c-.423,0-.781.013-1.139,0a1.26,1.26,0,0,1-1.326-1.226,1.242,1.242,0,0,1,1.311-1.237c.765-.023,1.533-.025,2.3,0a1.241,1.241,0,0,1,1.3,1.363c.007.342,0,.684,0,1.108.436,0,.833-.015,1.228,0a1.174,1.174,0,0,1,1.209,1.19,1.193,1.193,0,0,1-1.227,1.24c-.785.022-1.571.017-2.356,0a1.21,1.21,0,0,1-1.3-1.294C319.214,388.139,319.224,387.779,319.224,387.349Z" transform="translate(-67.466 -107.844)"/>
    <path id="Path_3597" data-name="Path 3597" d="M479.3,389.91c-.45,0-.83.014-1.209,0a1.2,1.2,0,0,1-1.228-1.243,1.175,1.175,0,0,1,1.212-1.19c.38-.017.761,0,1.226,0,0-.42-.009-.8,0-1.17a1.236,1.236,0,0,1,1.245-1.3,1.215,1.215,0,0,1,1.19,1.285q.023,2.386,0,4.773a1.18,1.18,0,0,1-1.232,1.288,1.221,1.221,0,0,1-1.206-1.326C479.3,390.681,479.3,390.337,479.3,389.91Z" transform="translate(-202.52 -107.936)"/>
    <path id="Path_3598" data-name="Path 3598" d="M288.564,435.382c-.767,0-1.534.01-2.3,0-.879-.014-1.409-.5-1.4-1.258a1.231,1.231,0,0,1,1.387-1.209q2.272-.019,4.545,0a1.244,1.244,0,1,1,.011,2.467C290.06,435.393,289.311,435.382,288.564,435.382Z" transform="translate(-40.572 -148.389)"/>
    <path id="Path_3599" data-name="Path 3599" d="M447.165,388.71c0,.786.013,1.573,0,2.359a1.18,1.18,0,0,1-1.192,1.27,1.2,1.2,0,0,1-1.243-1.286q-.019-2.387,0-4.775a1.219,1.219,0,1,1,2.434.016C447.177,387.1,447.165,387.9,447.165,388.71Z" transform="translate(-175.439 -107.926)"/>
    <path id="Path_3600" data-name="Path 3600" d="M367.177,339.337c-.4,0-.806.025-1.206-.005a1.239,1.239,0,0,1-1.212-1.218,1.211,1.211,0,0,1,1.2-1.226c.841-.039,1.687-.041,2.527,0a1.2,1.2,0,0,1,1.178,1.24,1.214,1.214,0,0,1-1.165,1.2c-.437.038-.88.007-1.321.007Z" transform="translate(-107.965 -67.366)"/>
    <path id="Path_3601" data-name="Path 3601" d="M351.2,435.337c-.4,0-.806.024-1.206-.005a1.225,1.225,0,1,1,.022-2.45c.8-.033,1.61-.032,2.413,0a1.229,1.229,0,0,1,1.251,1.236,1.248,1.248,0,0,1-1.273,1.219c-.4.023-.8,0-1.207,0Z" transform="translate(-94.486 -148.35)"/>
    <path id="Path_3602" data-name="Path 3602" d="M284.825,387.468c0-.44-.022-.882.005-1.321a1.2,1.2,0,0,1,1.2-1.15,1.19,1.19,0,0,1,1.206,1.089c.044.9.043,1.8,0,2.7a1.209,1.209,0,0,1-2.415-.054c-.023-.42,0-.842,0-1.264Z" transform="translate(-40.547 -107.955)"/>
  </g>
</svg>
